<?xml version="1.0" encoding="UTF-8" standalone="no"?><!DOCTYPE svg PUBLIC "-//W3C//DTD SVG 1.1//EN"
        "http://www.w3.org/Graphics/SVG/1.1/DTD/svg11.dtd">
<svg width="100%" height="100%"
     viewBox="0 0 106 121"
     version="1.1" xmlns="http://www.w3.org/2000/svg" xml:space="preserve"
     style="fill-rule:evenodd;clip-rule:evenodd;stroke-linejoin:round;stroke-miterlimit:2;">
    <g>
        <rect x="0" y="0" width="105.754" height="120.239" style="fill-opacity:0;"/>
        <path
                d="M105.754,114.095c0,2.116 -1.75,3.865 -3.866,3.865c-2.116,0 -3.866,-1.75 -3.866,-3.865l0,-110.229c0,-2.157 1.75,-3.866 3.866,-3.866c2.116,0 3.866,1.709 3.866,3.866l0,110.229Z"
                style="fill:#fff;fill-opacity:0.85;fill-rule:nonzero;"/>
        <path
                d="M10.539,116.211l16.317,-19.409c1.587,-1.872 1.79,-2.319 2.441,-4.313l1.383,-4.272l-8.667,-10.824l-2.767,12.777l-16.113,19.084c-5.127,6.022 3.174,11.963 7.405,6.958Zm39.795,-1.587c3.337,6.714 13.224,2.604 9.644,-4.68l-11.068,-22.461c-0.855,-1.668 -2.035,-3.459 -3.052,-4.923l-7.08,-10.01l0.488,-1.505c1.913,-5.575 2.604,-8.992 3.011,-14.526l1.099,-15.666c0.529,-7.528 -3.906,-13.102 -11.434,-13.102c-5.697,0 -9.522,2.93 -14.811,8.057l-8.301,8.179c-2.685,2.645 -3.622,4.802 -3.866,8.301l-0.976,12.858c-0.244,3.174 1.505,5.453 4.476,5.534c3.011,0.203 4.801,-1.546 5.086,-4.964l1.221,-14.079l3.987,-3.581c1.465,-1.343 3.499,-0.488 3.377,1.058l-0.936,11.922c-0.448,5.982 0.977,8.83 5.086,13.997l10.987,13.753c1.098,1.424 1.261,1.953 1.709,2.848l11.352,22.99Zm18.84,-65.633l-12.573,-0l-8.341,-9.277l-0.855,13.021l3.581,3.581c1.79,1.79 3.296,2.32 6.47,2.32l11.719,0c3.215,0 5.371,-1.872 5.371,-4.842c0,-2.93 -2.197,-4.802 -5.371,-4.802Zm-31.25,-26.164c6.347,0 11.434,-5.086 11.434,-11.434c0,-6.307 -5.086,-11.393 -11.434,-11.393c-6.307,0 -11.393,5.086 -11.393,11.393c0,6.348 5.086,11.434 11.393,11.434Z"
                style="fill:#fff;fill-opacity:0.85;fill-rule:nonzero;"/>
</g>
</svg>